<?xml version="1.0" standalone="no"?>
<!DOCTYPE svg PUBLIC "-//W3C//DTD SVG 20010904//EN"
 "http://www.w3.org/TR/2001/REC-SVG-20010904/DTD/svg10.dtd">
<svg version="1.0" xmlns="http://www.w3.org/2000/svg"
 width="250.000000pt" height="250.000000pt" viewBox="0 0 552.000000 500.000000"
 preserveAspectRatio="xMidYMid meet">

<g transform="translate(0.000000,500.000000) scale(0.100000,-0.100000)"
fill="#000000" stroke="none">
<path d="M3348 3690 c-78 -14 -146 -40 -198 -75 l-50 -34 0 45 0 44 -200 0
-200 0 -2 -529 -3 -529 -166 527 -165 526 -227 3 -227 2 0 -900 0 -900 200 0
200 0 2 555 3 554 140 -462 c76 -254 152 -504 167 -554 l29 -93 226 0 226 0
-5 52 c-5 52 -5 53 48 108 30 31 54 63 54 70 0 9 7 7 22 -6 l22 -19 -22 29
c-12 16 -22 34 -22 41 0 6 37 29 83 51 l82 39 -3 90 c-2 50 -8 95 -14 100 -7
7 -9 -16 -6 -70 l3 -80 -91 -3 c-85 -3 -92 -4 -98 -25 -3 -12 -6 -29 -6 -37 0
-13 1 -13 10 0 6 9 10 10 10 3 0 -6 3 -19 7 -29 4 -11 3 -15 -4 -11 -7 4 -9 0
-6 -11 5 -20 -60 -72 -121 -97 -34 -14 -36 -14 -50 8 -23 35 -46 105 -53 164
l-6 54 98 -2 97 -2 97 97 96 96 -113 0 -112 0 0 182 c0 176 0 181 19 164 18
-16 21 -14 84 51 36 37 66 72 67 76 1 5 -12 28 -30 53 -26 34 -36 41 -44 30
-15 -18 -145 -116 -155 -116 -23 0 -80 168 -81 238 l0 32 90 0 90 0 0 52 c0
120 63 223 168 275 51 25 67 28 162 28 110 0 165 -9 155 -25 -3 -5 1 -7 9 -4
8 3 33 -4 55 -17 23 -12 43 -21 45 -18 9 8 76 131 76 138 0 10 -67 41 -125 58
-60 17 -272 25 -337 13z m-383 -1260 c18 -19 17 -20 -3 -20 -15 0 -22 6 -22
20 0 11 2 20 3 20 2 0 12 -9 22 -20z"/>
<path d="M4273 3686 c-122 -28 -227 -92 -285 -173 -25 -34 -52 -55 -112 -85
-73 -37 -79 -38 -96 -23 -17 16 -17 15 -2 -27 l15 -44 51 13 c28 7 71 13 97
13 40 0 48 -3 53 -22 8 -33 7 -238 -1 -238 -4 0 -47 39 -96 88 l-88 87 -89
-95 c-48 -52 -83 -97 -77 -99 6 -2 18 -10 25 -18 10 -9 44 -13 118 -13 l104 0
0 -174 c0 -116 4 -177 11 -182 17 -10 69 -96 69 -114 0 -11 -28 -30 -82 -55
l-81 -38 -24 29 c-28 36 -30 26 -3 -23 11 -21 20 -47 20 -58 0 -15 3 -17 9 -7
4 8 11 13 15 12 3 -1 37 4 74 10 98 18 114 13 125 -35 12 -56 4 -205 -14 -237
l-14 -27 -84 40 c-46 21 -85 38 -86 37 -2 -2 -12 -22 -24 -45 -68 -135 -223
-207 -390 -183 -36 5 -68 7 -73 4 -4 -3 -8 -36 -8 -75 l0 -69 -30 0 c-16 0
-53 9 -82 20 -36 13 -47 15 -34 5 62 -47 216 -79 352 -73 85 4 94 2 94 -14 0
-13 8 -18 30 -18 23 0 30 4 30 20 0 12 -7 20 -17 21 -10 0 4 7 30 14 77 21
153 63 209 114 l51 47 49 -52 c62 -65 127 -94 227 -101 137 -10 239 30 319
124 l42 48 0 -72 0 -73 180 0 180 0 0 495 0 495 -275 0 -275 0 0 -165 0 -165
75 0 75 0 0 -135 c0 -163 -11 -198 -67 -221 -83 -35 -165 2 -183 82 -14 57
-13 965 1 1019 6 24 24 55 41 72 25 24 37 28 88 28 102 0 130 -47 130 -217 l0
-98 195 0 195 0 0 133 c0 147 -14 220 -58 300 -46 84 -136 148 -258 182 -83
23 -292 29 -371 11z m-509 -1633 c30 -38 39 -63 21 -63 -12 0 -12 -5 -3 -25 6
-14 18 -25 27 -25 20 -1 -24 -37 -54 -44 -18 -4 -17 -3 4 15 l24 20 -19 35
c-10 20 -23 38 -27 41 -5 3 -4 -4 2 -15 22 -41 10 -36 -15 6 -25 41 -25 44 -8
63 22 24 22 24 48 -8z"/>
<path d="M1620 3655 c0 -18 4 -18 50 0 l35 13 -42 1 c-32 1 -43 -3 -43 -14z"/>
<path d="M1790 3524 c-13 -69 -30 -133 -37 -142 -11 -15 -16 -13 -45 21 l-33
38 -40 -53 c-22 -29 -97 -127 -167 -218 l-128 -165 0 -97 0 -98 100 0 100 0 0
100 0 100 -70 0 c-40 0 -70 4 -70 10 0 6 30 10 70 10 l70 0 0 86 c0 85 0 87
40 136 37 47 40 49 40 24 l0 -26 100 0 100 0 -1 138 c0 75 4 159 11 186 9 40
8 52 -3 63 -11 11 -17 -7 -37 -113z"/>
<path d="M3363 3520 c-65 -15 -163 -92 -163 -127 0 -5 34 -25 75 -46 75 -37
75 -37 75 -78 l0 -40 -100 3 -100 3 5 -32 c3 -18 8 -49 11 -69 3 -19 8 -34 12
-32 4 2 48 24 99 48 84 41 92 48 93 74 1 77 85 135 175 122 40 -6 52 -3 103
27 31 18 67 38 80 43 l23 9 -34 33 -33 32 -64 -66 c-57 -59 -66 -65 -87 -55
-21 10 -23 17 -23 86 l0 75 -57 -1 c-32 -1 -72 -4 -90 -9z m19 -82 c28 -46 34
-65 26 -75 -14 -17 -28 -17 -28 1 0 8 -4 16 -8 18 -5 2 -26 23 -47 47 -38 41
-38 44 -20 57 30 22 38 17 77 -48z"/>
<path d="M1050 3199 l0 -32 20 26 c11 14 20 28 20 31 0 3 -9 6 -20 6 -16 0
-20 -7 -20 -31z"/>
<path d="M1340 3188 l0 -42 30 34 c37 44 37 50 0 50 -29 0 -30 -2 -30 -42z"/>
<path d="M1620 3130 l0 -100 100 0 100 0 0 100 0 100 -100 0 -100 0 0 -100z"/>
<path d="M1073 3059 l-108 -141 -32 39 c-18 21 -33 41 -33 46 0 4 -19 7 -42 7
l-43 1 24 20 c23 19 23 21 8 37 -11 10 -20 13 -26 7 -4 -6 -70 -90 -146 -187
-75 -98 -141 -178 -146 -178 -4 0 -13 8 -18 18 -8 12 -10 -3 -11 -60 l0 -78
100 0 100 0 0 100 c0 100 0 100 -25 100 -23 0 -21 5 38 81 l62 82 3 -72 3 -71
99 0 100 0 0 50 c0 36 4 50 14 50 8 0 24 12 35 28 l20 27 1 -77 0 -78 100 0
100 0 0 100 0 100 -81 0 c-51 0 -78 4 -74 10 3 6 40 10 81 10 l74 0 0 51 c0
39 -6 58 -26 85 -15 19 -30 34 -35 34 -5 0 -57 -63 -116 -141z"/>
<path d="M3620 3153 l0 -26 25 23 c14 13 25 25 25 27 0 2 -11 3 -25 3 -20 0
-25 -5 -25 -27z"/>
<path d="M1620 2910 l0 -100 100 0 100 0 0 100 0 100 -100 0 -100 0 0 -100z"/>
<path d="M3310 2926 c0 -2 8 -10 18 -17 15 -13 16 -12 3 4 -13 16 -21 21 -21
13z"/>
<path d="M780 2690 l0 -100 100 0 100 0 0 100 0 100 -100 0 -100 0 0 -100z"/>
<path d="M1050 2690 l0 -100 100 0 100 0 0 100 0 100 -100 0 -100 0 0 -100z"/>
<path d="M1340 2690 l0 -100 100 0 100 0 0 100 0 100 -100 0 -100 0 0 -100z"/>
<path d="M1620 2690 l0 -100 100 0 100 0 0 100 0 100 -100 0 -100 0 0 -100z"/>
<path d="M3602 2690 l26 -20 -64 -61 c-43 -42 -68 -59 -79 -55 -13 5 -13 1 3
-22 35 -49 69 -75 85 -65 8 4 43 35 77 67 l61 59 -48 49 c-26 27 -57 54 -68
59 -12 6 -9 1 7 -11z"/>
<path d="M500 2460 l0 -100 100 0 100 0 0 100 0 100 -100 0 -100 0 0 -100z"/>
<path d="M780 2460 l0 -100 100 0 100 0 0 100 0 100 -100 0 -100 0 0 -100z"/>
<path d="M1050 2460 l0 -100 100 0 100 0 0 100 0 100 -100 0 -100 0 0 -100z"/>
<path d="M1340 2460 l0 -100 100 0 100 0 0 100 0 100 -100 0 -100 0 0 -100z"/>
<path d="M1620 2460 l0 -100 100 0 100 0 0 100 0 100 -100 0 -100 0 0 -100z"/>
<path d="M500 2220 l0 -100 100 0 100 0 0 100 0 100 -100 0 -100 0 0 -100z"/>
<path d="M780 2220 l0 -100 100 0 100 0 0 100 0 100 -100 0 -100 0 0 -100z"/>
<path d="M1050 2220 l0 -100 100 0 100 0 0 100 0 100 -100 0 -100 0 0 -100z"/>
<path d="M1340 2220 l0 -100 100 0 100 0 0 100 0 100 -100 0 -100 0 0 -100z"/>
<path d="M1620 2220 l0 -100 100 0 100 0 0 100 0 100 -100 0 -100 0 0 -100z"/>
<path d="M3156 2291 c-10 -11 -16 -25 -15 -30 2 -6 12 3 21 19 20 35 18 38 -6
11z"/>
<path d="M3615 2273 c-9 -52 -39 -89 -81 -103 -35 -12 -94 -10 -125 4 -13 5
-24 -7 -50 -58 -24 -46 -31 -68 -23 -76 21 -21 133 -32 208 -20 125 19 210 88
247 198 30 89 27 92 -80 92 l-89 0 -7 -37z"/>
<path d="M500 1980 l0 -100 100 0 100 0 0 100 0 100 -100 0 -100 0 0 -100z"/>
<path d="M780 1980 l0 -100 100 0 100 0 0 100 0 100 -100 0 -100 0 0 -100z"/>
<path d="M1050 1980 l0 -100 100 0 100 0 0 100 0 100 -100 0 -100 0 0 -100z"/>
<path d="M1340 1980 l0 -100 100 0 100 0 0 100 0 100 -100 0 -100 0 0 -100z"/>
<path d="M1620 1980 l0 -100 100 0 100 0 0 100 0 100 -100 0 -100 0 0 -100z"/>
<path d="M535 1808 c-32 -18 -35 -28 -35 -125 0 -87 1 -93 26 -112 15 -12 37
-21 49 -21 38 0 75 37 75 76 0 31 -3 34 -30 34 -27 0 -30 -3 -30 -30 0 -20 -5
-30 -15 -30 -12 0 -15 16 -15 85 0 69 3 85 15 85 9 0 15 -9 15 -25 0 -21 5
-25 30 -25 26 0 30 4 30 28 0 33 -8 45 -37 61 -27 14 -52 14 -78 -1z"/>
<path d="M1370 1685 l0 -135 30 0 30 0 0 135 0 135 -30 0 -30 0 0 -135z"/>
<path d="M2270 1685 l0 -135 70 0 c68 0 70 1 70 25 0 23 -4 25 -40 25 -38 0
-40 2 -40 30 0 28 3 30 35 30 31 0 35 3 35 25 0 22 -4 25 -35 25 -32 0 -35 2
-35 30 0 28 2 30 40 30 36 0 40 3 40 25 0 24 -2 25 -70 25 l-70 0 0 -135z"/>
<path d="M3900 1685 l0 -135 30 0 30 0 0 135 0 135 -30 0 -30 0 0 -135z"/>
<path d="M4455 1808 c-32 -18 -35 -28 -35 -125 0 -87 1 -93 26 -112 15 -12 37
-21 49 -21 38 0 75 37 75 76 0 31 -3 34 -30 34 -27 0 -30 -3 -30 -30 0 -20 -5
-30 -15 -30 -12 0 -15 16 -15 85 0 69 3 85 15 85 9 0 15 -9 15 -25 0 -21 5
-25 30 -25 26 0 30 4 30 28 0 33 -8 45 -37 61 -27 14 -52 14 -78 -1z"/>
<path d="M4730 1816 c0 -6 -38 -211 -45 -243 -5 -20 -1 -23 25 -23 23 0 31 5
36 26 8 32 47 30 52 -3 3 -18 10 -23 33 -23 35 0 35 -2 6 150 l-23 115 -42 3
c-23 2 -42 1 -42 -2z m53 -118 c3 -36 1 -48 -9 -48 -15 0 -19 46 -7 90 8 28
10 23 16 -42z"/>
<path d="M1468 1778 c-4 -62 5 -205 14 -215 6 -7 20 -13 32 -13 20 0 21 4 19
107 0 60 -2 116 -2 126 -1 12 -9 17 -31 17 -24 0 -30 -5 -32 -22z"/>
<path d="M704 1756 c-16 -12 -19 -27 -19 -96 0 -92 12 -110 70 -110 58 0 70
18 70 110 0 92 -12 110 -70 110 -17 0 -40 -6 -51 -14z m66 -96 c0 -56 -3 -70
-15 -70 -12 0 -15 14 -15 70 0 56 3 70 15 70 12 0 15 -14 15 -70z"/>
<path d="M860 1660 l0 -110 30 0 29 0 3 85 c2 48 7 85 13 85 6 0 11 -37 13
-85 l3 -85 29 0 30 0 0 91 c0 50 -5 99 -10 110 -12 21 -50 25 -68 7 -9 -9 -12
-9 -12 0 0 7 -13 12 -30 12 l-30 0 0 -110z"/>
<path d="M1050 1750 c-30 -30 -25 -59 20 -100 42 -38 51 -60 25 -60 -8 0 -15
7 -15 15 0 9 -9 15 -25 15 -18 0 -25 -5 -25 -19 0 -30 28 -51 65 -51 42 0 65
22 65 64 0 26 -8 39 -40 65 -42 33 -50 51 -25 51 8 0 15 -7 15 -15 0 -9 9 -15
25 -15 30 0 34 29 7 53 -25 23 -68 21 -92 -3z"/>
<path d="M1190 1679 c0 -50 5 -99 10 -110 12 -21 50 -25 68 -7 9 9 12 9 12 0
0 -7 13 -12 30 -12 l30 0 0 110 0 110 -30 0 -29 0 -3 -87 c-4 -113 -22 -111
-26 2 l-3 85 -29 0 -30 0 0 -91z"/>
<path d="M1584 1756 c-16 -12 -19 -27 -19 -96 0 -92 12 -110 70 -110 58 0 70
18 70 110 0 92 -12 110 -70 110 -17 0 -40 -6 -51 -14z m66 -96 c0 -56 -3 -70
-15 -70 -12 0 -15 14 -15 70 0 56 3 70 15 70 12 0 15 -14 15 -70z"/>
<path d="M1730 1660 l0 -110 30 0 30 0 0 74 c0 66 2 75 20 81 14 4 20 15 20
36 0 32 -14 38 -29 12 -10 -17 -10 -17 -11 0 0 12 -8 17 -30 17 l-30 0 0 -110z"/>
<path d="M1875 1756 c-16 -11 -20 -29 -23 -89 -4 -66 -2 -77 17 -96 42 -42
131 -15 131 39 0 16 -7 20 -30 20 -23 0 -30 -4 -30 -20 0 -11 -7 -20 -15 -20
-10 0 -15 10 -15 30 0 29 2 30 46 30 l47 0 -6 47 c-3 29 -12 52 -23 60 -23 17
-75 17 -99 -1z m65 -46 c0 -11 -7 -20 -15 -20 -8 0 -15 9 -15 20 0 11 7 20 15
20 8 0 15 -9 15 -20z"/>
<path d="M2040 1750 c-30 -30 -25 -59 20 -100 42 -38 51 -60 25 -60 -8 0 -15
7 -15 15 0 9 -9 15 -25 15 -18 0 -25 -5 -25 -19 0 -30 28 -51 65 -51 42 0 65
22 65 64 0 26 -8 39 -40 65 -42 33 -50 51 -25 51 8 0 15 -7 15 -15 0 -9 9 -15
25 -15 30 0 34 29 7 53 -25 23 -68 21 -92 -3z"/>
<path d="M2450 1660 l0 -110 30 0 30 0 0 85 c0 50 4 85 10 85 6 0 10 -35 10
-85 l0 -85 30 0 29 0 3 85 c2 48 7 85 13 85 6 0 11 -37 13 -85 l3 -85 29 0 30
0 0 98 c0 63 -4 102 -12 110 -15 15 -50 16 -65 1 -8 -8 -17 -7 -32 3 -17 11
-25 11 -43 -1 -16 -10 -23 -10 -26 -2 -2 6 -15 11 -28 11 -24 0 -24 0 -24
-110z"/>
<path d="M2710 1640 l0 -130 30 0 c27 0 30 3 30 32 0 25 3 29 12 20 19 -19 45
-14 62 10 18 26 22 131 6 172 -10 28 -47 35 -68 14 -9 -9 -12 -9 -12 0 0 7
-13 12 -30 12 l-30 0 0 -130z m88 18 c-4 -86 -22 -94 -26 -12 -3 62 1 84 18
84 7 0 10 -26 8 -72z"/>
<path d="M2880 1660 l0 -110 30 0 30 0 0 74 c0 66 2 75 20 81 14 4 20 15 20
36 0 32 -14 38 -29 12 -10 -17 -10 -17 -11 0 0 12 -8 17 -30 17 l-30 0 0 -110z"/>
<path d="M3025 1756 c-16 -11 -20 -29 -23 -89 -4 -66 -2 -77 17 -96 42 -42
131 -15 131 39 0 16 -7 20 -30 20 -23 0 -30 -4 -30 -20 0 -11 -7 -20 -15 -20
-10 0 -15 10 -15 30 0 29 2 30 46 30 l47 0 -6 47 c-3 29 -12 52 -23 60 -23 17
-75 17 -99 -1z m65 -46 c0 -11 -7 -20 -15 -20 -8 0 -15 9 -15 20 0 11 7 20 15
20 8 0 15 -9 15 -20z"/>
<path d="M3190 1750 c-30 -30 -25 -59 20 -100 42 -38 51 -60 25 -60 -8 0 -15
7 -15 15 0 9 -9 15 -25 15 -18 0 -25 -5 -25 -19 0 -30 28 -51 65 -51 42 0 65
22 65 64 0 26 -8 39 -40 65 -42 33 -50 51 -25 51 8 0 15 -7 15 -15 0 -9 9 -15
25 -15 30 0 34 29 7 53 -25 23 -68 21 -92 -3z"/>
<path d="M3358 1759 c-10 -5 -18 -21 -18 -34 0 -20 5 -25 25 -25 16 0 25 6 25
15 0 8 7 15 16 15 28 0 10 -34 -28 -52 -42 -20 -57 -54 -42 -97 9 -24 14 -26
78 -28 l68 -2 -4 95 c-2 81 -6 98 -22 110 -23 16 -73 18 -98 3z m62 -139 c0
-29 -4 -40 -15 -40 -18 0 -21 50 -3 68 17 17 18 16 18 -28z"/>
<path d="M3500 1660 l0 -110 30 0 30 0 0 74 c0 66 2 75 20 81 14 4 20 15 20
36 0 32 -14 38 -29 12 -10 -17 -10 -17 -11 0 0 12 -8 17 -30 17 l-30 0 0 -110z"/>
<path d="M3630 1660 l0 -110 30 0 30 0 0 110 0 110 -30 0 -30 0 0 -110z"/>
<path d="M3748 1759 c-10 -5 -18 -21 -18 -34 0 -20 5 -25 25 -25 16 0 25 6 25
15 0 8 7 15 16 15 28 0 10 -34 -28 -52 -42 -20 -57 -54 -42 -97 9 -24 14 -26
78 -28 l68 -2 -4 95 c-2 81 -6 98 -22 110 -23 16 -73 18 -98 3z m62 -139 c0
-29 -4 -40 -15 -40 -18 0 -21 50 -3 68 17 17 18 16 18 -28z"/>
<path d="M4015 1756 c-16 -11 -20 -29 -23 -89 -4 -66 -2 -77 17 -96 42 -42
131 -15 131 39 0 16 -7 20 -30 20 -23 0 -30 -4 -30 -20 0 -11 -7 -20 -15 -20
-10 0 -15 10 -15 30 0 29 2 30 46 30 l47 0 -6 47 c-3 29 -12 52 -23 60 -23 17
-75 17 -99 -1z m65 -46 c0 -11 -7 -20 -15 -20 -8 0 -15 9 -15 20 0 11 7 20 15
20 8 0 15 -9 15 -20z"/>
<path d="M4180 1750 c-30 -30 -25 -59 20 -100 42 -38 51 -60 25 -60 -8 0 -15
7 -15 15 0 9 -9 15 -25 15 -18 0 -25 -5 -25 -19 0 -30 28 -51 65 -51 42 0 65
22 65 64 0 26 -8 39 -40 65 -42 33 -50 51 -25 51 8 0 15 -7 15 -15 0 -9 9 -15
25 -15 30 0 34 29 7 53 -25 23 -68 21 -92 -3z"/>
<path d="M4600 1580 c0 -27 3 -30 30 -30 27 0 30 3 30 30 0 27 -3 30 -30 30
-27 0 -30 -3 -30 -30z"/>
<path d="M4880 1580 c0 -27 3 -30 30 -30 27 0 30 3 30 30 0 27 -3 30 -30 30
-27 0 -30 -3 -30 -30z"/>
</g>
</svg>
