<?xml version="1.0" standalone="no"?>
<!DOCTYPE svg PUBLIC "-//W3C//DTD SVG 20010904//EN"
 "http://www.w3.org/TR/2001/REC-SVG-20010904/DTD/svg10.dtd">
<svg version="1.0" xmlns="http://www.w3.org/2000/svg"
 width="400.000000pt" height="224.000000pt" viewBox="0 0 400.000000 224.000000"
 preserveAspectRatio="xMidYMid meet">

<g transform="translate(0.000000,224.000000) scale(0.100000,-0.100000)"
fill="#000000" stroke="none">
<path d="M3070 2105 c0 -51 -3 -65 -15 -65 -8 0 -15 7 -15 15 0 8 -4 15 -10
15 -5 0 -10 -6 -10 -12 0 -25 18 -40 41 -36 22 3 24 8 27 76 2 45 -1 72 -8 72
-6 0 -10 -27 -10 -65z"/>
<path d="M3204 2149 c-16 -20 -44 -76 -44 -89 0 -5 11 -10 25 -10 17 0 25 -6
25 -17 0 -13 4 -12 14 7 7 14 9 30 5 35 -4 6 -9 28 -11 49 -2 31 -5 36 -14 25z
m-3 -72 c-17 -17 -24 -1 -10 25 12 21 14 21 17 4 2 -10 -1 -23 -7 -29z"/>
<path d="M3260 2134 c-20 -51 -4 -114 29 -114 25 0 41 28 41 70 0 66 -50 98
-70 44z m50 -45 c0 -43 -3 -50 -17 -47 -12 2 -19 14 -21 37 -4 41 3 61 23 61
11 0 15 -12 15 -51z"/>
<path d="M3352 2148 c-24 -24 -4 -95 24 -84 8 3 14 -1 14 -10 0 -13 -6 -15
-27 -9 -23 5 -25 4 -14 -9 30 -37 61 -5 61 61 0 39 -14 63 -35 63 -6 0 -16 -5
-23 -12z m38 -38 c0 -20 -5 -30 -15 -30 -10 0 -15 10 -15 30 0 20 5 30 15 30
10 0 15 -10 15 -30z"/>
<path d="M3430 2150 c0 -5 11 -10 25 -10 30 0 29 3 10 -50 -17 -50 -19 -70 -5
-70 6 0 10 11 10 25 0 14 9 43 20 65 11 22 20 42 20 45 0 3 -18 5 -40 5 -22 0
-40 -4 -40 -10z"/>
<path d="M3520 2150 c0 -5 11 -10 25 -10 14 0 25 -1 25 -2 0 -2 -7 -21 -15
-43 -8 -22 -14 -49 -14 -60 0 -11 9 5 21 35 11 30 24 59 29 65 17 18 9 25 -31
25 -22 0 -40 -4 -40 -10z"/>
<path d="M3613 2115 c-29 -57 -29 -65 2 -65 17 0 25 -6 26 -17 0 -14 2 -15 6
-3 3 8 11 18 17 22 8 5 7 11 -2 20 -6 6 -12 29 -12 50 0 21 -3 38 -7 38 -5 0
-18 -21 -30 -45z m19 -37 c-15 -15 -24 -6 -16 16 5 12 10 14 17 7 8 -8 8 -14
-1 -23z"/>
<path d="M3692 2148 c-14 -14 -16 -38 -3 -38 5 0 11 7 15 15 8 21 36 19 36 -3
0 -10 -13 -29 -30 -44 -43 -38 -40 -58 10 -58 22 0 40 5 40 10 0 6 -15 10 -32
10 l-33 0 33 31 c17 16 32 38 32 48 0 21 -19 41 -40 41 -9 0 -21 -5 -28 -12z"/>
<path d="M3780 2141 c-24 -46 -5 -121 30 -121 24 0 40 28 40 70 0 42 -16 70
-40 70 -11 0 -24 -9 -30 -19z m45 -52 c0 -32 -4 -44 -15 -44 -16 0 -26 54 -16
82 12 30 31 6 31 -38z"/>
<path d="M3947 2141 c-15 -16 -16 -19 -3 -24 9 -4 16 -23 19 -54 3 -37 4 -32
5 25 1 39 1 72 0 71 -2 0 -11 -8 -21 -18z"/>
<path d="M3105 2070 c3 -5 13 -10 21 -10 8 0 14 5 14 10 0 6 -9 10 -21 10 -11
0 -17 -4 -14 -10z"/>
<path d="M3865 2070 c3 -5 13 -10 21 -10 8 0 14 5 14 10 0 6 -9 10 -21 10 -11
0 -17 -4 -14 -10z"/>
<path d="M2575 1994 c-95 -20 -195 -60 -210 -84 -13 -21 -25 -9 -25 25 l0 35
-175 0 -175 0 0 -467 c0 -256 -3 -463 -7 -459 -6 6 -122 364 -143 441 -4 17
-40 130 -79 252 -39 122 -71 225 -71 228 0 3 -92 5 -205 5 l-205 0 0 -800 0
-800 180 0 180 0 1 493 c0 425 2 487 14 452 14 -43 79 -252 138 -450 20 -66
56 -185 80 -265 24 -80 49 -164 56 -187 l12 -43 199 0 200 0 2 23 c1 12 2 34
2 48 1 17 17 44 46 75 32 35 45 56 45 78 0 27 7 33 70 65 39 20 71 37 73 37 2
1 -1 40 -6 85 l-10 84 1 -65 1 -65 -80 -3 c-119 -3 -122 3 -31 95 l77 78 -95
3 -95 3 0 153 c0 84 3 156 7 159 3 4 12 2 19 -4 20 -16 137 106 124 129 -27
47 -47 65 -61 54 -41 -35 -125 -92 -134 -92 -27 0 -75 128 -75 203 l0 37 80 0
80 0 0 50 c0 52 21 117 51 161 71 103 288 135 430 64 l45 -23 14 21 c20 33 60
110 58 111 -2 1 -16 8 -33 17 -68 38 -279 62 -370 43z m-355 -1129 c10 -12 10
-15 -4 -15 -9 0 -16 7 -16 15 0 8 2 15 4 15 2 0 9 -7 16 -15z m137 -121 c14
-4 24 -17 28 -35 4 -16 11 -29 16 -29 13 0 5 -56 -11 -75 -14 -17 -109 -75
-123 -75 -15 0 -55 105 -62 163 l-7 57 68 0 c38 0 79 -3 91 -6z"/>
<path d="M3357 1979 c-87 -25 -161 -72 -215 -137 -51 -61 -171 -129 -192 -109
-10 10 -11 7 -5 -13 11 -39 15 -40 92 -28 40 6 79 8 88 4 12 -4 15 -26 15
-116 0 -60 -3 -110 -7 -110 -4 0 -42 34 -83 75 l-75 75 -79 -80 c-74 -76 -78
-82 -60 -95 13 -10 47 -14 110 -15 74 0 93 -3 98 -16 3 -9 6 -78 6 -154 l0
-138 35 -52 c19 -29 35 -57 35 -64 0 -6 -33 -28 -72 -49 -72 -36 -73 -36 -90
-17 -26 32 -28 23 -5 -22 12 -24 22 -44 22 -45 1 -1 38 5 83 14 65 13 85 14
95 4 17 -17 16 -218 -1 -248 l-13 -23 -69 35 c-38 19 -71 35 -74 35 -2 0 -18
-24 -34 -54 -17 -29 -46 -65 -64 -80 -18 -14 -28 -26 -21 -26 6 0 15 5 18 10
11 19 31 10 50 -22 12 -21 15 -33 7 -36 -14 -4 6 -52 22 -52 13 -1 -24 -30
-37 -30 -5 0 -4 6 2 14 15 17 -11 64 -52 97 -25 19 -30 19 -50 7 -35 -23 -155
-39 -214 -30 -29 5 -56 6 -61 3 -5 -3 -11 -32 -14 -63 -3 -32 -8 -61 -12 -65
-3 -4 -27 -1 -53 5 -65 18 -63 9 4 -18 46 -18 85 -24 191 -28 100 -3 135 -8
139 -18 3 -8 16 -14 29 -14 18 0 24 5 24 23 0 18 11 26 63 45 42 15 83 40 120
73 l57 50 49 -49 c64 -64 127 -87 236 -86 106 0 167 27 235 101 l50 55 0 -66
0 -66 160 0 160 0 0 440 0 440 -245 0 -245 0 0 -145 0 -145 66 0 66 0 -4 -140
c-4 -167 -11 -180 -102 -188 -51 -4 -57 -2 -86 26 l-30 30 0 472 c0 521 -1
513 64 544 43 20 59 20 103 -1 49 -23 63 -62 63 -178 l0 -95 176 0 176 0 -4
143 c-4 117 -9 152 -28 199 -26 66 -94 139 -161 173 -107 55 -323 71 -452 34z"/>
<path d="M1020 1960 c0 -12 17 -12 45 0 17 7 15 9 -12 9 -18 1 -33 -3 -33 -9z"/>
<path d="M1190 1943 c-1 -61 -41 -233 -54 -233 -6 0 -23 14 -37 31 l-26 32
-66 -89 c-36 -49 -102 -136 -146 -193 l-81 -104 0 -89 0 -88 85 0 85 0 0 90 0
89 -62 4 -63 3 63 2 62 2 0 58 c0 59 13 121 28 131 4 3 16 17 25 31 17 24 17
24 17 2 0 -21 4 -22 91 -22 l90 0 -2 94 c-1 51 1 98 4 102 2 5 6 40 8 78 3 49
0 70 -8 73 -7 3 -13 1 -13 -4z"/>
<path d="M2580 1841 c-51 -16 -106 -50 -127 -80 -13 -16 -23 -33 -23 -35 0 -3
32 -22 71 -41 67 -34 70 -37 67 -68 l-3 -32 -87 0 -88 0 6 -35 c14 -88 4 -85
97 -39 78 39 83 44 97 87 22 66 55 87 138 87 58 1 74 5 116 33 28 18 58 32 68
32 14 0 11 6 -14 29 l-33 30 -57 -56 c-54 -53 -59 -56 -83 -45 -25 12 -27 15
-23 77 l3 65 -50 -1 c-27 0 -61 -4 -75 -8z m13 -73 c24 -37 32 -57 25 -65 -7
-9 -21 1 -54 34 -45 48 -53 68 -31 76 22 9 25 8 60 -45z"/>
<path d="M520 1553 c0 -14 1 -24 3 -22 1 2 11 14 21 27 19 22 19 22 -2 22 -17
0 -22 -6 -22 -27z"/>
<path d="M778 1550 c-3 -16 -1 -30 3 -30 4 0 17 14 29 30 l21 30 -24 0 c-20 0
-26 -6 -29 -30z"/>
<path d="M1022 1493 l3 -88 88 -3 87 -3 0 91 0 90 -90 0 -91 0 3 -87z"/>
<path d="M541 1435 c-52 -69 -97 -125 -101 -125 -4 0 -20 18 -35 40 -21 31
-34 40 -56 40 -27 0 -28 2 -17 20 10 16 10 22 0 32 -11 11 -15 10 -22 -2 -5
-8 -41 -55 -80 -105 -190 -238 -182 -230 -193 -202 -3 6 -6 -18 -6 -55 l-1
-68 85 0 85 0 0 90 c0 73 -3 90 -15 90 -22 0 -20 4 34 75 53 71 61 69 61 -11
l0 -44 85 0 85 0 0 35 c0 24 8 41 27 59 33 31 43 21 43 -46 l0 -48 85 0 85 0
0 90 0 89 -67 4 -68 3 66 2 67 2 5 43 c3 33 -1 50 -21 80 -13 20 -27 37 -31
37 -3 0 -48 -56 -100 -125z"/>
<path d="M2810 1520 c0 -5 4 -10 9 -10 6 0 13 5 16 10 3 6 -1 10 -9 10 -9 0
-16 -4 -16 -10z"/>
<path d="M1027 1383 c-4 -3 -7 -44 -7 -90 l0 -83 90 0 90 0 0 90 0 90 -83 0
c-46 0 -87 -3 -90 -7z"/>
<path d="M280 1100 l0 -90 85 0 85 0 0 90 0 90 -85 0 -85 0 0 -90z"/>
<path d="M520 1100 l0 -90 85 0 85 0 0 90 0 90 -85 0 -85 0 0 -90z"/>
<path d="M780 1100 l0 -90 85 0 85 0 0 90 0 90 -85 0 -85 0 0 -90z"/>
<path d="M1022 1103 l3 -88 88 -3 87 -3 0 91 0 90 -90 0 -91 0 3 -87z"/>
<path d="M2747 1021 l-62 -60 29 -30 c17 -17 36 -31 43 -31 7 0 38 24 70 54
56 54 56 55 40 80 -36 54 -52 53 -120 -13z"/>
<path d="M30 900 l0 -90 85 0 85 0 0 90 0 90 -85 0 -85 0 0 -90z"/>
<path d="M280 900 l0 -90 85 0 85 0 0 90 0 90 -85 0 -85 0 0 -90z"/>
<path d="M520 900 l0 -90 85 0 85 0 0 90 0 90 -85 0 -85 0 0 -90z"/>
<path d="M780 900 l0 -90 85 0 85 0 0 90 0 90 -85 0 -85 0 0 -90z"/>
<path d="M1027 983 c-4 -3 -7 -44 -7 -90 l0 -83 90 0 90 0 0 90 0 90 -83 0
c-46 0 -87 -3 -90 -7z"/>
<path d="M30 680 l0 -90 85 0 85 0 0 90 0 90 -85 0 -85 0 0 -90z"/>
<path d="M280 680 l0 -90 85 0 85 0 0 90 0 90 -85 0 -85 0 0 -90z"/>
<path d="M520 680 l0 -90 85 0 85 0 0 90 0 90 -85 0 -85 0 0 -90z"/>
<path d="M780 680 l0 -90 85 0 85 0 0 90 0 90 -85 0 -85 0 0 -90z"/>
<path d="M1022 683 l3 -88 88 -3 87 -3 0 91 0 90 -90 0 -91 0 3 -87z"/>
<path d="M2801 721 c-6 -22 -26 -52 -43 -66 -30 -25 -38 -27 -96 -22 l-63 5
-29 -52 c-42 -73 -31 -81 108 -81 100 0 110 2 156 29 28 16 61 41 74 55 31 33
62 104 62 142 l0 29 -78 0 -79 0 -12 -39z"/>
<path d="M30 470 l0 -90 85 0 85 0 0 90 0 90 -85 0 -85 0 0 -90z"/>
<path d="M280 470 l0 -90 85 0 85 0 0 90 0 90 -85 0 -85 0 0 -90z"/>
<path d="M520 470 l0 -90 85 0 85 0 0 90 0 90 -85 0 -85 0 0 -90z"/>
<path d="M780 470 l0 -90 85 0 85 0 0 90 0 90 -85 0 -85 0 0 -90z"/>
<path d="M1027 553 c-4 -3 -7 -44 -7 -90 l0 -83 90 0 90 0 0 90 0 90 -83 0
c-46 0 -87 -3 -90 -7z"/>
<path d="M60 317 c-13 -7 -27 -23 -31 -37 -12 -44 -9 -119 5 -155 14 -31 19
-35 54 -35 45 0 72 23 72 63 0 22 -5 27 -24 27 -18 0 -26 -6 -28 -22 -2 -12
-9 -23 -15 -26 -10 -3 -13 16 -13 72 0 61 3 76 15 76 8 0 15 -9 15 -20 0 -15
7 -20 25 -20 19 0 25 5 25 23 0 28 -9 41 -37 56 -27 14 -32 14 -63 -2z"/>
<path d="M807 323 c-4 -3 -7 -57 -7 -120 l0 -113 25 0 25 0 0 120 c0 110 -2
120 -18 120 -10 0 -22 -3 -25 -7z"/>
<path d="M1600 210 l0 -120 65 0 c58 0 65 2 65 20 0 16 -7 20 -35 20 -30 0
-35 3 -35 24 0 19 6 25 28 28 19 2 28 9 30 26 3 19 -1 22 -27 22 -26 0 -31 4
-31 25 0 21 5 25 30 25 25 0 30 4 30 25 0 24 -3 25 -60 25 l-60 0 0 -120z"/>
<path d="M3060 211 l0 -121 25 0 26 0 -3 118 c-3 113 -4 117 -25 120 -23 3
-23 2 -23 -117z"/>
<path d="M3548 315 c-27 -15 -28 -18 -28 -104 0 -101 12 -121 72 -121 31 0 38
5 52 34 22 48 20 56 -14 56 -26 0 -30 -4 -30 -26 0 -16 -5 -24 -12 -22 -9 3
-14 30 -16 76 -2 60 0 72 13 72 8 0 15 -9 15 -20 0 -16 7 -20 30 -20 28 0 30
2 24 28 -12 52 -59 73 -106 47z"/>
<path d="M3791 293 c-6 -21 -15 -68 -21 -105 -5 -37 -13 -74 -16 -82 -5 -12 1
-16 25 -16 24 0 31 4 31 20 0 13 7 20 20 20 13 0 20 -7 20 -20 0 -16 7 -20 30
-20 17 0 30 5 30 13 0 10 -20 126 -36 205 -4 18 -11 22 -39 22 -31 0 -35 -3
-44 -37z m47 -117 c-15 -18 -19 3 -11 51 l8 48 5 -45 c3 -25 2 -49 -2 -54z"/>
<path d="M888 283 c-2 -16 -2 -64 1 -108 l6 -80 33 -3 c23 -2 32 1 32 12 0 8
-4 18 -10 21 -14 8 -13 98 1 112 18 18 -11 73 -37 73 -16 0 -23 -8 -26 -27z"/>
<path d="M206 264 c-11 -11 -16 -34 -16 -75 0 -83 10 -99 65 -99 55 0 65 16
65 98 0 44 -5 63 -18 75 -23 21 -76 22 -96 1z m62 -84 c-4 -78 -28 -80 -28 -2
0 32 3 62 7 66 15 14 24 -14 21 -64z"/>
<path d="M350 185 c0 -95 0 -95 25 -95 24 0 25 2 25 76 0 56 3 75 13 72 8 -3
13 -30 15 -76 3 -69 4 -72 28 -72 25 0 25 0 22 86 -2 70 -6 89 -20 98 -13 8
-23 8 -38 -2 -12 -7 -20 -8 -20 -2 0 5 -11 10 -25 10 -25 0 -25 0 -25 -95z"/>
<path d="M516 264 c-27 -26 -19 -60 19 -91 19 -15 35 -34 35 -40 0 -18 -19
-16 -26 2 -4 8 -15 15 -26 15 -15 0 -19 -6 -16 -27 3 -26 7 -28 50 -31 39 -3
49 0 58 18 16 31 5 65 -30 90 -17 12 -30 29 -30 38 1 16 2 16 14 0 17 -23 46
-23 46 0 0 41 -63 58 -94 26z"/>
<path d="M640 198 c0 -46 4 -88 8 -95 4 -7 32 -12 65 -12 l57 0 0 95 c0 94 0
94 -25 94 -24 0 -25 -2 -25 -75 0 -60 -3 -75 -15 -75 -12 0 -15 15 -15 75 0
73 -1 75 -25 75 -25 0 -25 -1 -25 -82z"/>
<path d="M986 258 c-19 -26 -21 -106 -4 -143 9 -21 18 -25 53 -25 22 0 46 5
53 12 7 7 12 41 12 85 0 61 -3 74 -19 83 -34 18 -78 12 -95 -12z m64 -74 c0
-48 -3 -65 -12 -62 -13 5 -23 89 -14 114 13 35 26 9 26 -52z"/>
<path d="M1130 185 c0 -95 0 -95 25 -95 24 0 25 2 25 65 0 51 3 65 15 65 10 0
15 10 15 28 0 27 -3 29 -40 30 l-40 2 0 -95z"/>
<path d="M1247 262 c-19 -21 -24 -121 -7 -153 15 -27 95 -27 110 0 17 33 12
51 -15 51 -19 0 -25 -5 -25 -21 0 -27 -24 -19 -28 9 -3 20 1 22 37 22 41 0 41
0 41 39 0 23 -7 46 -16 55 -21 22 -77 20 -97 -2z m63 -38 c0 -8 -7 -14 -15
-14 -15 0 -21 21 -9 33 10 9 24 -2 24 -19z"/>
<path d="M1395 260 c-23 -26 -13 -63 25 -90 29 -21 41 -50 20 -50 -5 0 -10 7
-10 15 0 9 -9 15 -25 15 -27 0 -35 -26 -13 -48 16 -16 80 -16 96 0 24 24 14
66 -23 94 -19 14 -35 34 -35 43 1 14 2 14 14 -1 16 -21 56 -24 56 -5 0 21 -34
47 -62 47 -14 0 -33 -9 -43 -20z"/>
<path d="M1760 184 c0 -94 0 -94 25 -94 24 0 25 3 25 59 0 63 6 91 21 91 5 0
9 -34 9 -75 0 -73 1 -75 25 -75 24 0 25 2 25 75 0 60 3 75 15 75 12 0 15 -15
15 -75 0 -73 1 -75 25 -75 25 0 25 1 25 83 0 51 -5 88 -12 95 -15 15 -55 16
-63 2 -4 -7 -11 -7 -18 -2 -7 5 -36 10 -64 10 l-53 1 0 -95z"/>
<path d="M2000 164 l0 -114 25 0 c20 0 25 5 25 24 0 20 4 22 27 18 37 -7 53
20 53 91 0 85 -9 96 -75 96 l-55 0 0 -115z m80 15 c0 -46 -3 -59 -15 -59 -12
0 -15 13 -15 58 0 32 3 62 6 65 15 15 24 -8 24 -64z"/>
<path d="M2150 185 c0 -95 0 -95 25 -95 24 0 25 2 25 64 0 55 3 64 20 69 14 3
20 14 20 31 0 27 -24 37 -33 14 -4 -10 -6 -10 -6 0 -1 6 -12 12 -26 12 -25 0
-25 0 -25 -95z"/>
<path d="M2272 268 c-7 -7 -12 -41 -12 -83 0 -81 9 -95 60 -95 42 0 60 14 60
47 0 18 -6 23 -25 23 -18 0 -25 -5 -25 -20 0 -11 -4 -20 -10 -20 -5 0 -10 11
-10 25 0 22 4 25 35 25 35 0 35 1 35 43 0 24 -5 48 -12 55 -16 16 -80 16 -96
0z m58 -38 c0 -11 -4 -20 -10 -20 -5 0 -10 9 -10 20 0 11 5 20 10 20 6 0 10
-9 10 -20z"/>
<path d="M2422 268 c-23 -23 -14 -66 23 -99 19 -18 32 -36 29 -40 -8 -14 -24
-10 -24 6 0 15 -35 21 -43 8 -3 -5 -1 -18 4 -30 7 -18 16 -23 47 -23 72 0 86
55 27 109 -20 18 -33 37 -29 43 4 7 10 5 16 -6 12 -22 48 -21 48 2 0 27 -20
42 -55 42 -17 0 -36 -5 -43 -12z"/>
<path d="M2567 262 c-10 -10 -17 -24 -17 -30 0 -18 47 -14 54 5 5 12 10 13 18
5 13 -13 -6 -42 -27 -42 -24 0 -46 -37 -43 -72 l3 -33 63 -3 62 -3 0 80 c0 59
-4 84 -16 95 -21 22 -77 20 -97 -2z m59 -138 c-3 -9 -10 -12 -16 -9 -14 9 -12
53 3 58 13 4 22 -26 13 -49z"/>
<path d="M2700 185 c0 -95 0 -95 25 -95 24 0 25 3 25 61 0 52 3 62 20 66 14 4
20 14 20 34 0 31 -9 36 -28 17 -9 -9 -12 -9 -12 0 0 7 -11 12 -25 12 -25 0
-25 0 -25 -95z"/>
<path d="M2820 185 c0 -95 0 -95 25 -95 25 0 25 0 25 95 0 95 0 95 -25 95 -25
0 -25 0 -25 -95z"/>
<path d="M2916 264 c-24 -23 -20 -44 9 -44 16 0 25 6 25 16 0 9 5 14 12 12 26
-9 17 -28 -22 -48 -39 -20 -41 -23 -38 -63 l3 -42 63 -3 62 -3 0 73 c0 90 -15
118 -65 118 -18 0 -41 -7 -49 -16z m60 -140 c-3 -9 -10 -12 -16 -9 -14 9 -12
53 3 58 13 4 22 -26 13 -49z"/>
<path d="M3158 269 c-15 -8 -18 -24 -18 -82 0 -44 5 -78 12 -85 7 -7 31 -12
55 -12 43 0 63 17 63 54 0 24 -46 21 -53 -4 -7 -28 -27 -25 -27 4 0 21 5 25
38 28 32 3 37 7 40 31 5 43 -22 77 -61 77 -17 0 -40 -5 -49 -11z m60 -42 c2
-10 -3 -17 -12 -17 -10 0 -16 9 -16 21 0 24 23 21 28 -4z"/>
<path d="M3300 261 c-18 -34 -11 -58 25 -90 35 -30 45 -51 25 -51 -6 0 -13 7
-16 15 -6 15 -39 21 -47 8 -3 -5 -1 -18 4 -30 7 -19 16 -23 50 -23 44 0 68 19
69 52 0 9 -16 32 -35 51 -19 19 -35 40 -35 48 1 10 4 9 14 -3 17 -23 46 -23
46 0 0 27 -20 42 -57 42 -22 0 -36 -6 -43 -19z"/>
<path d="M3680 115 c0 -20 5 -25 25 -25 20 0 25 5 25 25 0 20 -5 25 -25 25
-20 0 -25 -5 -25 -25z"/>
<path d="M3930 115 c0 -20 5 -25 25 -25 20 0 25 5 25 25 0 20 -5 25 -25 25
-20 0 -25 -5 -25 -25z"/>
</g>
</svg>
